<?xml version="1.0" encoding="UTF-8" standalone="no"?>
<!--Generator: Apple Native CoreSVG 341-->

<svg
   version="1.1"
   viewBox="0 0 58.1299 55.4932"
   id="svg10"
   sodipodi:docname="light.beacon.max.svg"
   inkscape:version="1.2.2 (b0a84865, 2022-12-01)"
   xmlns:inkscape="http://www.inkscape.org/namespaces/inkscape"
   xmlns:sodipodi="http://sodipodi.sourceforge.net/DTD/sodipodi-0.dtd"
   xmlns="http://www.w3.org/2000/svg"
   xmlns:svg="http://www.w3.org/2000/svg">
  <defs
     id="defs14" />
  <sodipodi:namedview
     id="namedview12"
     pagecolor="#ffffff"
     bordercolor="#111111"
     borderopacity="1"
     inkscape:showpageshadow="0"
     inkscape:pageopacity="0"
     inkscape:pagecheckerboard="1"
     inkscape:deskcolor="#d1d1d1"
     showgrid="false"
     inkscape:zoom="18.506773"
     inkscape:cx="17.750259"
     inkscape:cy="27.719582"
     inkscape:window-width="2560"
     inkscape:window-height="1314"
     inkscape:window-x="0"
     inkscape:window-y="30"
     inkscape:window-maximized="0"
     inkscape:current-layer="svg10" />
  <g
     id="g8">
    <path
       d="M6.7627 31.0059C7.91016 31.0059 8.91113 30.0537 8.91113 28.9307C8.91113 27.7588 7.91016 26.8066 6.7627 26.8066L2.0752 26.8066C0.952148 26.8066 0 27.7832 0 28.9307C0 30.0293 0.952148 31.0059 2.0752 31.0059ZM11.7676 14.7705C12.5732 15.5762 13.916 15.6006 14.7217 14.7705C15.5518 13.9404 15.5273 12.6221 14.7217 11.8164L11.4258 8.49609C10.6445 7.66602 9.27734 7.66602 8.44727 8.49609C7.6416 9.32617 7.6416 10.6201 8.44727 11.4502ZM26.7822 6.81152C26.7822 7.95898 27.7344 8.93555 28.8818 8.93555C30.0537 8.93555 31.0059 7.95898 31.0059 6.81152L31.0059 2.12402C31.0059 0.976562 30.0293 0 28.8818 0C27.7344 0 26.7822 0.976562 26.7822 2.12402ZM43.0176 11.8164C42.2119 12.6221 42.1875 13.9404 43.0176 14.7705C43.8721 15.6006 45.166 15.5762 45.9717 14.7705L49.3164 11.4502C50.1221 10.6201 50.1221 9.32617 49.3164 8.49609C48.4619 7.66602 47.168 7.66602 46.3623 8.49609ZM55.6641 31.0059C56.8115 31.0059 57.7881 30.0293 57.7881 28.9307C57.7881 27.7832 56.8115 26.8066 55.6641 26.8066L50.9766 26.8066C49.8535 26.8066 48.877 27.7588 48.877 28.9307C48.877 30.0537 49.8535 31.0059 50.9766 31.0059Z"
       fill="white"
       fill-opacity="0.85"
       id="path4" />
    <path
       d="M40.7227 47.4121L44.6533 47.4121L44.6533 29.248C44.6533 20.3369 37.793 13.4521 28.8818 13.4521C19.9951 13.4521 13.1348 20.3369 13.1348 29.248L13.1348 47.4121L17.0654 47.4121L17.0654 29.248C17.0654 22.5098 22.168 17.3828 28.8818 17.3828C35.6201 17.3828 40.7227 22.5098 40.7227 29.248ZM47.6318 49.3896C48.7305 49.3896 49.6338 48.5107 49.6338 47.4365C49.6338 46.3379 48.7305 45.4346 47.6318 45.4346L10.1074 45.4346C9.0332 45.4346 8.17871 46.3379 8.17871 47.4365C8.17871 48.5107 9.0332 49.3896 10.1074 49.3896ZM30.8594 29.7852C30.8594 28.7109 29.9561 27.8076 28.8818 27.8076C27.8076 27.8076 26.9531 28.7109 26.9531 29.7852L26.9531 47.4121L30.8594 47.4121Z"
       fill="white"
       fill-opacity="0.85"
       id="path6" />
  </g>
</svg>
